#N canvas 827 239 527 327 12;
#X obj 57 839 dac~;
#X obj 44 195 osc~ 440;
#X obj 204 65 r Pitch @hv_param;
#X obj 204 147 mtof;
#X obj 204 102 * 127;
#X obj 287 743 r Volume @hv_param;
#X obj 131 795 *~ 1;
#X obj 174 795 *~ 1;
#X obj 131 642 hv.reverb~;
#X obj 37 65 hsl 128 19 0 1 0 0 empty empty empty -2 -8 0 10 #fcfcfc #000000 #000000 0 1;
#X floatatom 429 400 5 0 0 0 - - - 0;
#X msg 429 419 feedback \$1;
#X floatatom 516 400 5 0 0 1 dB - - 0;
#X msg 516 419 dry-gain \$1;
#X floatatom 604 400 5 0 0 1 dB - - 0;
#X msg 604 426 wet-gain \$1;
#X floatatom 696 400 10 0 0 1 Hz - - 0;
#X floatatom 784 400 10 0 0 1 Hz - - 0;
#X msg 696 419 lowcut \$1;
#X msg 784 419 highcut \$1;
#X obj 455 264 vsl 15 128 0 100 0 0 empty empty empty 0 -9 0 10 #fcfcfc #000000 #000000 0 1;
#X obj 516 264 vsl 15 128 0 100 0 0 empty empty empty 0 -9 0 10 #fcfcfc #000000 #000000 0 1;
#X obj 634 258 vsl 15 128 0 100 0 0 empty empty empty 0 -9 0 10 #fcfcfc #000000 #000000 0 1;
#X obj 696 264 vsl 15 128 0 25000 0 0 empty empty empty 0 -9 0 10 #fcfcfc #000000 #000000 0 1;
#X obj 784 264 vsl 15 128 0 25000 0 0 empty empty empty 0 -9 0 10 #fcfcfc #000000 #000000 0 1;
#X floatatom 869 400 10 0 0 1 Hz - - 0;
#X obj 869 264 vsl 15 128 0 25000 0 0 empty empty empty 0 -9 0 10 #fcfcfc #000000 #000000 0 1;
#X floatatom 964 400 5 0 0 0 - - - 0;
#X obj 964 264 vsl 15 128 0 100 0 0 empty empty empty 0 -9 0 10 #fcfcfc #000000 #000000 0 1;
#X msg 964 419 damp \$1;
#X msg 869 419 crossfreq \$1;
#X obj 1119 163 loadbang;
#X msg 869 242 3000;
#X msg 964 241 60;
#X msg 696 242 5;
#X msg 784 242 24000;
#X floatatom 1034 400 7 0 0 0 - - - 10;
#X obj 1065 254 vsl 15 128 0 2800 0 0 empty empty empty 0 -9 0 10 #fcfcfc #000000 #000000 0 1;
#X msg 1034 419 predelay_ms \$1;
#X obj 131 271 hv.osc~ saw;
#X obj 607 147 * 100;
#X obj 426 143 * 100;
#X obj 607 110 r RevGain @hv_param;
#X obj 426 110 r RevFeedback @hv_param;
#X obj 1034 110 r RevPredelay @hv_param;
#X obj 1034 147 * 700;
#X msg 516 231 100;
#X msg 446 231 70;
#X msg 630 225 50;
#X obj 44 715 *~ 0.5;
#X msg 1065 231 3;
#X obj 131 231 sig~;
#X connect 2 0 4 0;
#X connect 3 0 1 0;
#X connect 3 0 51 0;
#X connect 4 0 3 0;
#X connect 5 0 6 1;
#X connect 5 0 7 1;
#X connect 6 0 0 0;
#X connect 7 0 0 1;
#X connect 8 0 6 0;
#X connect 8 1 7 0;
#X connect 9 0 4 0;
#X connect 10 0 11 0;
#X connect 11 0 8 1;
#X connect 12 0 13 0;
#X connect 13 0 8 1;
#X connect 14 0 15 0;
#X connect 15 0 8 1;
#X connect 16 0 18 0;
#X connect 17 0 19 0;
#X connect 18 0 8 1;
#X connect 19 0 8 1;
#X connect 20 0 10 0;
#X connect 21 0 12 0;
#X connect 22 0 14 0;
#X connect 23 0 16 0;
#X connect 24 0 17 0;
#X connect 25 0 30 0;
#X connect 26 0 25 0;
#X connect 27 0 29 0;
#X connect 28 0 27 0;
#X connect 29 0 8 1;
#X connect 30 0 8 1;
#X connect 31 0 46 0;
#X connect 31 0 33 0;
#X connect 31 0 32 0;
#X connect 31 0 35 0;
#X connect 31 0 34 0;
#X connect 31 0 48 0;
#X connect 31 0 47 0;
#X connect 31 0 50 0;
#X connect 32 0 26 0;
#X connect 33 0 28 0;
#X connect 34 0 23 0;
#X connect 35 0 24 0;
#X connect 36 0 38 0;
#X connect 37 0 36 0;
#X connect 38 0 8 1;
#X connect 39 0 8 0;
#X connect 40 0 14 0;
#X connect 41 0 10 0;
#X connect 42 0 40 0;
#X connect 43 0 41 0;
#X connect 44 0 45 0;
#X connect 45 0 36 0;
#X connect 46 0 21 0;
#X connect 47 0 20 0;
#X connect 48 0 22 0;
#X connect 49 0 6 0;
#X connect 49 0 7 0;
#X connect 50 0 37 0;
#X connect 51 0 39 0;
